<svg xmlns="http://www.w3.org/2000/svg" version="1.1" xmlns:xlink="http://www.w3.org/1999/xlink" xmlns:svgjs="http://svgjs.dev/svgjs" width="1000" height="505" viewBox="0 0 1000 505"><g transform="matrix(1,0,0,1,-0.6060598488919027,-0.4463880686070354)"><svg viewBox="0 0 396 200" data-background-color="#282634" preserveAspectRatio="xMidYMid meet" height="505" width="1000" xmlns="http://www.w3.org/2000/svg" xmlns:xlink="http://www.w3.org/1999/xlink"><g id="tight-bounds" transform="matrix(1,0,0,1,0.2400002998388686,0.17678975261451058)"><svg viewBox="0 0 395.52 199.64642289348174" height="199.64642289348174" width="395.52"><g><svg viewBox="0 0 395.52 199.64642289348174" height="199.64642289348174" width="395.52"><g><svg viewBox="0 0 395.52 199.64642289348174" height="199.64642289348174" width="395.52"><g id="textblocktransform"><svg viewBox="0 0 395.52 199.64642289348174" height="199.64642289348174" width="395.52" id="textblock"><g><svg viewBox="0 0 395.52 199.64642289348174" height="199.64642289348174" width="395.52"><g transform="matrix(1,0,0,1,0,0)"><svg width="395.52" viewBox="1.9000000953674316 -26.149999618530273 62.900001525878906 31.75" height="199.64642289348174" data-palette-color="#ff4057"><path d="M14.7-7.25L14.7-6.25Q14.7-3.4 14.95 0L14.95 0 3.95 0Q1.9-7.95 1.9-16.9L1.9-16.9Q1.9-21.45 2.45-25L2.45-25 29.55-25Q31-19.35 31.15-11.55L31.15-11.55Q23.75-8.25 14.7-7.25L14.7-7.25ZM14.75-10.7L14.75-10.7Q17.95-11.1 20.1-12.3L20.1-12.3Q19.3-17.6 15.8-21.7L15.8-21.7Q15-16.75 14.75-10.7ZM54.4-22L54.4-22Q52.4-22.3 50.12-22.3 47.85-22.3 45.7-22L45.7-22Q47.05-19.7 48.9-18.25 50.75-16.8 53.57-15.38 56.4-13.95 58.17-12.75 59.95-11.55 62.1-8.8 64.25-6.05 64.8-3.05L64.8-3.05Q62.4 0.05 58.45 2.43 54.5 4.8 50.35 5.6L50.35 5.6Q47.55 5.35 43.27 4.03 39 2.7 36.85 2.7 34.7 2.7 32.55 4.05L32.55 4.05Q33.45 1.5 35.5-2.35L35.5-2.35 35.9-2.35Q39.1-2.35 41.92-1.35 44.75-0.35 47.07 0.65 49.4 1.65 50.82 1.65 52.25 1.65 52.9 1.45L52.9 1.45Q52.9-1.85 50.85-4L50.85-4Q49.75-5.15 48.97-5.78 48.2-6.4 46.6-7.5L46.6-7.5 45.75-8.1Q42.35-10.45 40.15-12.88 37.95-15.3 36.95-18.85L36.95-18.85Q38.55-22.4 40.1-25L40.1-25Q44.85-26.15 49.95-26.15L49.95-26.15 52.15-26.15Q56.45-26.15 62-24.95L62-24.95Q61.2-21.65 60.05-19L60.05-19Q55.85-18.7 53.55-18.7L53.55-18.7Q54-19.85 54.4-22Z" opacity="1" transform="matrix(1,0,0,1,0,0)" fill="#ff4057" class="undefined-text-0" data-fill-palette-color="primary" id="text-0"></path></svg></g></svg></g></svg></g></svg></g><g></g></svg></g><defs></defs></svg><rect width="395.52" height="199.64642289348174" fill="none" stroke="none" visibility="hidden"></rect></g></svg></g></svg>