<svg xmlns="http://www.w3.org/2000/svg" version="1.1" xmlns:xlink="http://www.w3.org/1999/xlink" xmlns:svgjs="http://svgjs.dev/svgjs" width="1000" height="305" viewBox="0 0 1000 305"><g transform="matrix(1,0,0,1,-0.6056348047761162,0.17537671081495887)"><svg viewBox="0 0 396 121" data-background-color="#ffffff" preserveAspectRatio="xMidYMid meet" height="305" width="1000" xmlns="http://www.w3.org/2000/svg" xmlns:xlink="http://www.w3.org/1999/xlink"><g id="tight-bounds" transform="matrix(1,0,0,1,0.24008861730862918,-0.06947011963274008)"><svg viewBox="0 0 395.52 121.13904579834946" height="121.13904579834946" width="395.52"><g><svg viewBox="0 0 395.52 121.13904579834946" height="121.13904579834946" width="395.52"><g><svg viewBox="0 0 395.52 121.13904579834946" height="121.13904579834946" width="395.52"><g id="textblocktransform"><svg viewBox="0 0 395.52 121.13904579834946" height="121.13904579834946" width="395.52" id="textblock"><g><svg viewBox="0 0 395.52 121.13904579834946" height="121.13904579834946" width="395.52"><path d="M394.594 25.982C392.735 13.408 387.435 9.912 387.435 9.912 371.165-3.039 350.86-0.248 332.619 1.613 300.414 1.689 268.339 4.455 236.208 5.939 168.767 6.165 100.749 2.443 33.643 11.622 27.339 14.439-6.54 12.176 1.121 27.592 3.129 34.004 10.456 41.121 10.232 47.006 11.236 48.037 12.631 45.673 13.226 47.157 15.309 51.156 18.711 49.269 21.501 51.633 17.614 57.946 20.403 63.202 23.062 68.709 18.377 70.143 12.371 69.464 9.675 74.217 9.396 77.662 7.89 77.008 6.235 76.857 5.026 76.757 2.59 77.134 2.999 78.215 4.394 81.912-1.594 84.05 2.162 87.671-0.422 91.594 3.948 94.989 3.353 99.239 3.278 100.094 3.687 100.824 4.338 101.025 7.22 102.106 3.018 104.219 3.464 106.507 33.029 122.149 65.104 111.336 95.394 118.528 103.259 113.498 97.346 120.314 100.489 119.257 102.943 118.025 104.728 123.13 107.499 120.238 107.927 119.408 107.276 117.447 108.8 117.824 109.6 118.025 110.307 117.975 110.418 116.818 110.586 115.083 109.117 116.164 108.726 115.259 112.947 110.682 111.906 121.571 115.866 121.118 115.68 119.785 114.528 117.874 116.889 118.126 119.232 116.214 119.306 114.63 121.389 118.93 121.463 119.861 121.835 120.515 122.43 120.967 128.938 116.29 135.409 122.627 142.233 120.515 146.417 118.201 150.433 121.772 154.672 120.892 156.16 120.188 157.666 118.93 159.098 121.043 176.632 121.496 195.319 119.609 211.943 121.118 256.364 118.302 303.835 122.275 350.674 118.553 361.719 117.12 373.192 115.083 383.958 113.448 383.958 113.448 392.679 108.972 392.679 88.853S394.538 71.249 394.817 55.23C395.096 39.21 396.398 38.556 394.538 25.982Z" opacity="1" fill="#ff0000" data-fill-palette-color="tertiary"></path><g transform="matrix(1,0,0,1,55.76832,26.230666666666668)"><svg width="283.98335999999995" viewBox="3.6500000953674316 -33.70000076293945 139.3400115966797 33.70000076293945" height="68.67771246501613" data-palette-color="#ffffff"><path d="M13.6-11.95L13.6-11.95 8.8-11.95 8.8 0 3.65 0 3.65-33.7 13.3-33.7Q19.1-33.7 22.5-30.63 25.9-27.55 25.9-22.75 25.9-17.95 22.48-14.95 19.05-11.95 13.6-11.95ZM13.1-29.45L13.1-29.45 8.8-29.45 8.8-16.2 13.2-16.2Q16.85-16.2 18.78-18 20.7-19.8 20.7-22.75L20.7-22.75Q20.7-25.85 18.75-27.65 16.8-29.45 13.1-29.45ZM39.15-14.25L39.15-14.25 38.6-12.55 49.4-12.55 48.85-14.25Q46.95-20.15 45.75-24.03 44.55-27.9 44.3-28.85L44.3-28.85 44.05-29.8Q43.5-27.45 39.15-14.25ZM37.2-8.25L34.5 0 29.05 0 40.7-33.7 47.45-33.7 58.95 0 53.45 0 50.8-8.25 37.2-8.25ZM73.7-29.4L73.7-29.4 69.3-29.4 69.3-17.1 73.95-17.1Q77.15-17.1 78.8-18.78 80.45-20.45 80.45-23.25L80.45-23.25Q80.45-29.4 73.7-29.4ZM69.3-12.8L69.3 0 64.15 0 64.15-33.7 73.55-33.7Q79.34-33.7 82.5-30.88 85.65-28.05 85.65-23.2L85.65-23.2Q85.59-19.65 83.84-17.18 82.09-14.7 79-13.6L79-13.6 87.8 0 81.65 0 73.75-12.8 69.3-12.8ZM112.79-33.7L112.79-29.4 103.94-29.4 103.94 0 98.79 0 98.79-29.4 89.99-29.4 89.99-33.7 112.79-33.7ZM142.99-33.7L142.99 0 137.84 0 137.84-14.75 122.69-14.75 122.69 0 117.54 0 117.54-33.7 122.69-33.7 122.69-19.2 137.84-19.2 137.84-33.7 142.99-33.7Z" opacity="1" transform="matrix(1,0,0,1,0,0)" fill="#ffffff" class="undefined-text-0" data-fill-palette-color="quaternary" id="text-0"></path></svg></g></svg></g></svg></g></svg></g><g></g></svg></g><defs></defs></svg><rect width="395.52" height="121.13904579834946" fill="none" stroke="none" visibility="hidden"></rect></g></svg></g></svg>